PathFileType	4	(X/Y/Z)	/home/mitkof6/dev/sinergia_osimrl/data/02761/02761_PRE/experimental_data/task.trc
DataRate	CameraRate	NumFrames	NumMarkers	Units	OrigDataRate	OrigDataStartFrame	OrigNumFrames
100.000000	100.000000	4	43	mm	100.000000	0	354
Frame#	Time	C7			CLAV			LANK			LASI			LBHD			LELB			LFHD			LFIN			LHEE			LKNE			LMED			LMET			LMIF			LPSI			LSHO			LTHI			LTIB			LTOE			LTTU			LWRA			LWRB			RANK			RASI			RBAK			RBHD			RELB			RFHD			RFIN			RHEE			RKNE			RMED			RMET			RMIF			RPSI			RSHO			RTHI			RTIB			RTOE			RTTU			RWRA			RWRB			STRN			T10			
		X1	Y1	Z1	X2	Y2	Z2	X3	Y3	Z3	X4	Y4	Z4	X5	Y5	Z5	X6	Y6	Z6	X7	Y7	Z7	X8	Y8	Z8	X9	Y9	Z9	X10	Y10	Z10	X11	Y11	Z11	X12	Y12	Z12	X13	Y13	Z13	X14	Y14	Z14	X15	Y15	Z15	X16	Y16	Z16	X17	Y17	Z17	X18	Y18	Z18	X19	Y19	Z19	X20	Y20	Z20	X21	Y21	Z21	X22	Y22	Z22	X23	Y23	Z23	X24	Y24	Z24	X25	Y25	Z25	X26	Y26	Z26	X27	Y27	Z27	X28	Y28	Z28	X29	Y29	Z29	X30	Y30	Z30	X31	Y31	Z31	X32	Y32	Z32	X33	Y33	Z33	X34	Y34	Z34	X35	Y35	Z35	X36	Y36	Z36	X37	Y37	Z37	X38	Y38	Z38	X39	Y39	Z39	X40	Y40	Z40	X41	Y41	Z41	X42	Y42	Z42	X43	Y43	Z43	

1	0	-1487.19287109375	1195.303100585938	-280.7680053710935	-1370.924438476562	1126.030639648438	-280.552307128906	-1346.112060546875	61.45066452026375	-344.4401550292969	-1417.902221679688	800.1924438476564	-363.5850524902342	-1465.157104492188	1324.201538085938	-332.8845214843747	-1451.595947265625	902.9527587890626	-486.6871337890623	-1335.593017578125	1349.110717773438	-323.2741394042966	-1354.733276367188	637.7258911132814	-534.0432739257811	-1390.428588867188	37.52878952026374	-302.9229125976562	-1341.521728515625	439.1910400390626	-370.7897949218749	-1329.519165039062	69.74055480957037	-269.5987854003906	-1256.271606445312	30.44586372375496	-367.3723449707031	-1279.542724609375	70.71700286865241	-311.6727600097656	-1550.630249023438	850.2566528320314	-304.8710327148436	-1447.649536132812	1158.316162109375	-412.7344665527341	-1405.185791015625	555.5786743164064	-429.9373168945311	-1351.728637695312	244.4818878173829	-412.6786499023437	-1228.961669921875	46.05393218994148	-333.0140075683594	-1276.57763671875	374.8731994628907	-314.6917724609374	-1410.16259765625	677.2975463867189	-529.6164550781249	-1361.993774414062	686.5333862304689	-484.7726440429686	-1802.517456054688	129.8838500976563	-181.0159606933593	-1417.67529296875	801.197021484375	-163.7707519531248	-1513.811889648438	1069.910888671875	-190.4468688964841	-1493.496459960938	1297.469116210938	-228.6366271972653	-1468.801879882812	934.8587036132812	-66.89322662353494	-1349.608276367188	1328.514770507812	-201.2081451416013	-1303.340087890625	753.7640380859375	10.20027637481706	-1837.0869140625	135.973617553711	-235.338134765625	-1551.290649414062	425.4499206542969	-153.259292602539	-1762.550659179688	130.4668884277344	-246.2904510498047	-1758.75146484375	39.32502365112308	-160.0449981689453	-1743.852172851562	111.5443115234375	-196.5539093017578	-1548.3916015625	857.5162353515625	-221.3116455078123	-1451.575805664062	1184.258544921875	-156.2474365234372	-1504.963256835938	553.93505859375	-95.38102722167956	-1701.030517578125	270.9590454101562	-120.4028625488281	-1723.849243164062	45.5460586547852	-185.3315582275391	-1556.519775390625	334.0704040527344	-202.0652923583984	-1363.692626953125	771.746337890625	-0.3563870787618831	-1321.390869140625	787.8223266601562	-45.88355636596662	-1337.000610351562	990.0363769531251	-273.8129272460935	-1517.830200195312	950.7565307617189	-273.1173400878904	
2	0.01	-1476.799194335938	1195.236450195312	-282.680480957031	-1360.28515625	1126.326171875	-282.7442321777341	-1345.693237304688	61.4402160644532	-344.2673034667969	-1405.438842773438	800.8028564453126	-365.1233520507811	-1455.027099609375	1324.040283203125	-335.2002868652341	-1440.394775390625	902.3311767578126	-487.6938476562498	-1325.552856445312	1349.310302734375	-325.5642089843747	-1342.71875	637.7259521484376	-537.1331176757811	-1390.470092773438	37.7811012268067	-303.0042724609375	-1331.427734375	437.8817443847657	-371.3582763671874	-1329.42529296875	69.37989044189459	-269.2728881835938	-1255.994140625	30.74993324279793	-366.9320068359375	-1279.2490234375	70.1560134887696	-310.9347534179688	-1538.286743164062	850.7716674804689	-306.964385986328	-1437.49853515625	1158.064697265625	-414.7955017089841	-1392.68994140625	555.6516723632814	-431.3961181640624	-1341.960205078125	242.4449157714845	-412.9191894531249	-1228.514892578125	45.7415962219239	-332.1177673339844	-1270.014770507812	372.2473754882813	-313.7074584960937	-1397.988403320312	677.2606201171876	-531.2423095703124	-1348.413208007812	686.6260375976564	-487.7017517089842	-1792.5849609375	134.5132904052735	-178.684829711914	-1405.9013671875	800.6331176757812	-165.6022033691405	-1502.5087890625	1070.480102539062	-191.2782440185545	-1483.372192382812	1297.48486328125	-230.9003601074216	-1461.506103515625	936.5408325195312	-69.78138732910135	-1339.574584960938	1328.956176757812	-203.4635772705075	-1296.1708984375	755.7323608398438	8.93497276306169	-1826.502319335938	144.7499542236329	-231.9569549560547	-1535.345458984375	423.8158569335938	-152.2073211669921	-1752.880859375	133.8916625976563	-243.759521484375	-1754.708862304688	41.86060333251957	-159.5888061523438	-1735.13134765625	113.3986892700196	-194.6832580566406	-1536.34130859375	857.55419921875	-222.7816772460936	-1440.25927734375	1185.077880859375	-158.4189147949216	-1489.023559570312	552.897705078125	-95.76558685302722	-1687.980102539062	273.5055236816406	-118.4206008911132	-1720.822143554688	45.72251510620121	-186.0653991699219	-1540.386474609375	332.7519531250001	-199.7496643066405	-1356.408935546875	774.3330688476562	-1.632439136504955	-1314.0205078125	788.9878540039062	-47.57078552246076	-1325.871215820312	990.3670654296876	-275.7778320312498	-1505.955200195312	950.4135131835939	-274.4715270996091	
3	0.02	-1466.504638671875	1195.24658203125	-284.5358276367185	-1349.75537109375	1126.702514648438	-284.8563232421873	-1345.300537109375	61.43574523925789	-344.1040344238281	-1393.09765625	801.4527587890626	-366.5943908691405	-1445.020751953125	1323.966430664062	-337.4558105468747	-1429.342651367188	901.8209228515626	-488.678771972656	-1315.626220703125	1349.58056640625	-327.8112792968747	-1330.82177734375	637.8718872070314	-540.1677246093749	-1390.524047851562	38.03984451293952	-303.0807495117188	-1321.733642578125	436.5983886718751	-371.8524169921874	-1329.317016601562	69.04341125488287	-268.9658508300781	-1255.734130859375	31.02650451660164	-366.5218200683594	-1278.972900390625	69.62147521972663	-310.2438659667969	-1526.090087890625	851.3533325195314	-309.1090087890623	-1427.405395507812	1157.915405273438	-416.7915954589841	-1380.680297851562	555.6444091796876	-432.7482910156249	-1333.214477539062	240.6619110107423	-413.0805664062499	-1228.102661132812	45.45386123657234	-331.3028869628906	-1263.656860351562	369.7270507812501	-312.7344665527343	-1385.905151367188	677.3173217773439	-532.7539062499999	-1334.9287109375	686.8765869140626	-490.5802612304686	-1782.39111328125	139.1411437988282	-176.324966430664	-1394.380737304688	800.1495361328125	-167.367477416992	-1491.353271484375	1071.124633789062	-192.1325531005857	-1473.35791015625	1297.591552734375	-233.100662231445	-1454.320068359375	938.3246459960938	-72.57137298583963	-1329.643188476562	1329.469360351562	-205.6731262207028	-1289.093505859375	757.73095703125	7.634447097778488	-1815.721801757812	153.4317016601563	-228.509780883789	-1519.425048828125	422.2488403320313	-151.209503173828	-1743.10302734375	137.3415985107422	-241.279800415039	-1750.293701171875	44.53324508666996	-159.0713958740234	-1726.1953125	115.305046081543	-192.8893737792968	-1524.509643554688	857.6199340820312	-224.3536071777342	-1429.07080078125	1185.969482421875	-160.5311431884763	-1473.142822265625	551.9409790039062	-96.16947174072253	-1674.713134765625	275.9191284179688	-116.4458465576171	-1717.479736328125	46.05688858032231	-186.7166900634766	-1524.314086914062	331.4948425292969	-197.5678558349609	-1349.209716796875	776.9801025390625	-2.918250322341747	-1306.73828125	790.2847900390625	-49.25501251220685	-1314.832763671875	990.7965087890626	-277.6403808593748	-1494.22412109375	950.1771850585939	-275.8363952636716	
4	0.03	-1456.322021484375	1195.414916992188	-286.292785644531	-1339.357543945312	1127.242065429688	-286.8166503906248	-1344.952514648438	61.44293212890633	-343.9584045410156	-1380.916015625	802.1899414062501	-367.9500122070311	-1435.177490234375	1324.062744140625	-339.6050720214841	-1418.472534179688	901.5361938476564	-489.6304931640623	-1305.846801757812	1350.000854492188	-329.9861755371091	-1319.0419921875	638.3043212890626	-543.0986328124999	-1390.602661132812	38.31432342529303	-303.1531066894531	-1312.765502929688	435.3766784667969	-372.2216186523436	-1329.197509765625	68.75711822509771	-268.6967163085938	-1255.505615234375	31.2556629180909	-366.1635131835938	-1278.728881835938	69.13659667968757	-309.6371459960938	-1514.104125976562	852.0679931640626	-311.340606689453	-1417.33837890625	1157.971923828125	-418.6725158691403	-1369.472778320312	555.5318603515626	-433.9218749999999	-1326.258666992188	239.3173065185548	-413.1193847656249	-1227.75048828125	45.20877838134773	-330.6264953613281	-1257.677612304688	367.4026184082032	-311.8097229003906	-1373.884521484375	677.5627441406251	-534.0639038085936	-1321.520751953125	687.4453735351564	-493.3809509277342	-1771.607788085938	143.8141021728516	-173.9136352539062	-1383.266967773438	799.8361206054688	-169.0148315429686	-1480.409912109375	1071.9169921875	-193.0394134521482	-1463.478271484375	1297.876708984375	-235.1873779296872	-1447.272583007812	940.3037719726562	-75.17618560790994	-1319.834350585938	1330.139404296875	-207.8051757812497	-1282.146362304688	759.7977294921875	6.276635646820237	-1804.454345703125	161.9317474365235	-224.9779968261718	-1503.415771484375	420.8339233398438	-150.3191375732421	-1732.986938476562	140.8771514892579	-238.8831939697265	-1745.041259765625	47.49888610839847	-158.3947143554688	-1716.738037109375	117.3671188354493	-191.2003784179687	-1513.0166015625	857.7514038085938	-226.1106262207029	-1418.066040039062	1187.0048828125	-162.5373687744138	-1457.326416015625	551.1621704101562	-96.60881042480456	-1660.902587890625	278.1248168945312	-114.486473083496	-1713.37451171875	46.75119018554692	-187.1529846191406	-1508.226196289062	330.3684082031251	-195.6471099853515	-1342.1220703125	779.7523803710938	-4.21627330780012	-1299.578125	791.8546752929688	-50.92027664184553	-1303.89892578125	991.4190673828126	-279.3138122558591	-1482.697021484375	950.1527099609376	-277.2312011718748	
